<?xml version="1.0" encoding="utf-8"?>
<!-- Generator: Adobe Illustrator 23.0.1, SVG Export Plug-In . SVG Version: 6.00 Build 0)  -->
<svg version="1.1" id="Layer_1" xmlns="http://www.w3.org/2000/svg" xmlns:xlink="http://www.w3.org/1999/xlink" x="0px" y="0px"
	 viewBox="0 0 595.3 841.9" style="enable-background:new 0 0 595.3 841.9;" xml:space="preserve">
<style type="text/css">
	.st0{fill:#A8A8A7;}
	.st1{fill:#0083C7;}
	.st2{font-family:'TimesNewRomanPSMT';}
	.st3{font-size:348.6633px;}
</style>
<g>
	<path class="st0" d="M330.8,592.5c-125.3,0-226.8-100-226.8-223.4s101.6-223.4,226.8-223.4s226.8,100,226.8,223.4
		c0,14.1-1.4,27.8-3.9,41.1c3.7-16.8,5.6-34.2,5.6-52.1c0-136.9-112.7-247.9-251.7-247.9S56,221.2,56,358.1
		C56,495,168.7,606,307.7,606c78.6,0,148.8-35.6,195-91.2C461,562.4,399.5,592.5,330.8,592.5z"/>
	<path class="st1" d="M344.5,572.3c-125.3,0-226.8-100-226.8-223.4s101.6-223.4,226.8-223.4s226.8,100,226.8,223.4
		c0,14.1-1.4,27.8-3.9,41.1c3.7-16.8,5.6-34.2,5.6-52.1C573,201,460.3,90,321.3,90S69.7,201,69.7,337.9
		c0,136.9,112.7,247.9,251.7,247.9c78.6,0,148.8-35.6,195-91.2C474.7,542.1,413.2,572.3,344.5,572.3z"/>
</g>
<text transform="matrix(1.1433 0 0 1 203 447.834)" class="st2 st3">1.</text>
</svg>
